#!OML:ASF F:\VICON\USERDATA\INSTALL\rory3\rory3.ASF
:FULLY-SPECIFIED
:DEGREES
177
root 0.609004869072085 17.650066838042452 32.25386895360175 0.8770141948076255 -1.4541295617692525 -0.7978065813591904
lfemur -21.813640539974564 4.526037634677424 -20.788976086749027
ltibia 77.69997229369102
lfoot 2.0462960945877837 -8.437639557735938
ltoes -6.8795013104270275
rfemur -16.701718000056605 5.2080950214349855 30.13322468966895
rtibia 54.596172979150396
rfoot 0.5667927461398277 -5.995434820769385
rtoes -2.5550947177902157
lowerback 14.649423972936447 0.5234046859432735 1.8032866547166289
upperback -0.8139491947929397 1.660028313538509 1.9873314889207352
thorax -9.349888545674998 0.769127146723882 0.07412589848423247
lowerneck -19.921655804789367 -4.181719296521895 -2.40719469744504
upperneck 12.650864365102235 -5.8459254058323395 5.109361354097527
head 7.281382747159323 -2.6128090261166945 1.3602082517091707
lclavicle 2.9801515526439752e-15 1.1900897868484632e-16
lhumerus -50.28209113537763 -11.509326171081346 96.13134796677093
lradius 111.12065164787481
lwrist 34.10245160696799
lhand -20.829980624160356 2.9014942225793434
lfingers 7.125019999999999
lthumb 5.598405088243448 32.33417538870469
rclavicle 2.9801381671163078e-15 1.1900166246856291e-16
rhumerus -50.19165935194435 10.365982967726152 -96.69021349305105
rradius 110.76527260590869
rwrist -15.304830254031822
rhand -15.63510244787698 38.53116541807344
rfingers 7.125019999999999
rthumb 10.545262889463846 8.305909163408822
178
root 0.6137362001654814 17.684566266021267 33.325098620709205 1.0255011319447112 -1.3051195214775215 -0.7768151180411602
lfemur -21.446899272743416 4.737608157400401 -20.615147975525357
ltibia 77.4935894142657
lfoot 1.6714767607060144 -9.676241022592563
ltoes -6.820625768628266
rfemur -14.632115755664923 5.6578472357068 30.941546497150078
rtibia 55.04473008657519
rfoot 1.818916794433307 -5.366157427050673
rtoes -0.924809225316896
lowerback 14.612608084958687 0.5737483088149484 1.942289798743574
upperback -0.8279891824688151 1.7266308716720051 1.9589326464717405
thorax -9.395368029373449 0.7136699866348298 -0.3428266086094336
lowerneck -19.88605660576844 -4.209080434695088 -2.3979414899789244
upperneck 12.756863075102459 -5.8174427099430055 5.200646814070682
head 7.240530918754131 -2.70922411372094 1.3130525180807537
lclavicle 2.9801515526439752e-15 1.1900897868484632e-16
lhumerus -51.0380773401404 -11.327351128067956 96.07838607492889
lradius 111.3716765395848
lwrist 34.329334914272295
lhand -20.76586032827909 2.9352782012760334
lfingers 7.125019999999999
lthumb 5.596093599999126 32.30235473707924
rclavicle 2.9801381671163078e-15 1.1900166246856291e-16
rhumerus -49.93399271658835 10.459512096246714 -96.62566695947979
rradius 110.47312297728698
rwrist -15.263461066181804
rhand -15.627444857401082 38.534651982864034
rfingers 7.125019999999999
rthumb 10.603285847579565 8.340088549096093
179
root 0.6207244682691067 17.72667854249063 34.43106157720106 1.1299955374095387 -1.1846982451122894 -0.7218636888823418
lfemur -19.906541228133566 5.339769290389676 -19.835771194852445
ltibia 76.67090870760892
lfoot 1.7552437058786823 -9.965466948162982
ltoes -6.7095457124478735
rfemur -14.524480477431984 5.554110683603122 30.469321513822976
rtibia 56.27565081175156
rfoot 2.169330076522969 -4.74359249951765
rtoes -0.07405091916849904
lowerback 14.52941716530593 0.5965440653509022 2.0311331480744896
upperback -0.8408292732826252 1.7973421985492641 1.9489702371846844
thorax -9.33458270484603 0.8784914181358715 -0.19769437467448786
lowerneck -19.960499227100282 -4.319430831908862 -2.421913043173106
upperneck 12.67123480922906 -5.927811321839936 5.137985147704755
head 7.269482077586186 -2.7146964107695424 1.3396389730441385
lclavicle 2.9801515526439752e-15 1.1900897868484632e-16
lhumerus -51.26596420484129 -11.167466089216756 96.06889868914816
lradius 111.98825121847582
lwrist 34.56665861226936
lhand -20.714447706241852 2.9708730300791135
lfingers 7.125019999999999
lthumb 5.642599493225661 32.32839588029223
rclavicle 2.9801381671163078e-15 1.1900166246856291e-16
rhumerus -49.513540239167625 10.614811163181708 -96.55116915386908
rradius 110.1914961342633
rwrist -15.157748959454088
rhand -15.6348407117564 38.55167015631255
rfingers 7.125019999999999
rthumb 10.565398073532926 8.296801763672805
180
root 0.6176621753363823 17.71798977202398 33.693840991626125 1.100564489926102 -1.3295694649800522 -0.8754025530558849
lfemur -22.72819832359855 4.701112939973514 -21.002711661219532
ltibia 75.1034163191215
lfoot 0.8231149497652057 -10.046345007116834
ltoes -6.945190692870551
rfemur -13.610183214148172 5.675506199451442 30.816006640516996
rtibia 56.984716903563516
rfoot 1.9963376374973607 -4.662559152528894
rtoes 0.5985288455740546
lowerback 14.487675216457705 0.6769520513751491 2.207043490868396
upperback -0.81569624953464 1.990037470402013 1.969479343634603
thorax -9.34825173876082 0.8605650260724209 -0.366408915334149
lowerneck -20.00883117575157 -4.421358319816377 -2.435917042904983
upperneck 12.721395708347053 -5.946578150156581 5.212868131069404
head 7.262040454586691 -2.751385865152549 1.3303559591178689
lclavicle 2.9801515526439752e-15 1.1900897868484632e-16
lhumerus -52.2748532764291 -11.107061834822913 96.04317391633013
lradius 112.8297772085215
lwrist 34.56734723565349
lhand -20.71588059041399 2.9586307124585236
lfingers 7.125019999999999
lthumb 5.681338013426591 32.38430039104949
rclavicle 2.9801381671163078e-15 1.1900166246856291e-16
rhumerus -49.27848960570934 10.673642495966043 -96.55494202117471
rradius 110.08498561249169
rwrist -15.11160432111545
rhand -15.663794370988915 38.527057610036096
rfingers 7.125019999999999
rthumb 10.5570668331451 8.265616707599047
181
root 0.6231467838278351 17.74849712949562 34.520503897412134 1.1853524424431372 -1.2931094897804662 -0.8095716804488877
lfemur -22.03729631681621 5.096281320829577 -19.921386686429756
ltibia 72.78845111349028
lfoot -0.5183178138713056 -9.780855572501148
ltoes -7.3289934637342435
rfemur -11.6533511657221 5.719665948754875 31.14270851013554
rtibia 58.40042811578937
rfoot 1.7016840647033957 -5.015873237488155
rtoes 1.1154186564491773
lowerback 14.56801949167639 0.8720481619846359 2.6119617875590047
upperback -0.8621399814033293 2.0822136840504717 1.9347717486400686
thorax -9.221385945298893 1.1309967661394038 0.09022251744472046
lowerneck -19.931496620505172 -4.375188483034567 -2.401311748530506
upperneck 12.663369525327298 -5.998731221638252 5.205944911197042
head 7.294198786792895 -2.731456030419113 1.3578619729137906
lclavicle 2.9801515526439752e-15 1.1900897868484632e-16
lhumerus -51.905520798867876 -11.155409986121787 96.13465936119383
lradius 112.93474964185909
lwrist 34.31301687339977
lhand -20.687180757500293 3.0112853310008703
lfingers 7.125019999999999
lthumb 5.653523995445696 32.40909378587154
rclavicle 2.9801381671163078e-15 1.1900166246856291e-16
rhumerus -48.87451703037956 10.808676855075095 -96.53315793856136
rradius 110.11348126956398
rwrist -15.160968215821477
rhand -15.661216813075798 38.53003416429953
rfingers 7.125019999999999
rthumb 10.627619650833076 8.31111638260532
